HIERARCHY
ROOT Hips
{
	OFFSET 0.000000 8.830580 0.000000
	CHANNELS 6 Xposition Yposition Zposition Zrotation Yrotation Xrotation 
	JOINT Spine
	{
		OFFSET 0.000000 0.010000 0.000000
		CHANNELS 3 Zrotation Yrotation Xrotation
		JOINT Spine1
		{
			OFFSET 0.000000 2.459130 0.000000
			CHANNELS 3 Zrotation Yrotation Xrotation
			JOINT Neck
			{
				OFFSET 0.000000 2.484630 0.000000
				CHANNELS 3 Zrotation Yrotation Xrotation
				JOINT Head_virtual
				{
					OFFSET 0.000000 0.000000 0.000000
					CHANNELS 3 Zrotation Yrotation Xrotation
					JOINT Head
					{
						OFFSET 0.000000 0.927525 0.000000
						CHANNELS 3 Zrotation Yrotation Xrotation
						End Site
						{
							OFFSET 0.000000 0.000000 0.000000
						}
					}
				}
				JOINT LeftUpArm_virtual
				{
					OFFSET 0.000000 0.000000 0.000000
					CHANNELS 3 Zrotation Yrotation Xrotation
					JOINT LeftUpArm
					{
						OFFSET 1.248820 0.000000 0.000000
						CHANNELS 3 Zrotation Yrotation Xrotation
						JOINT LeftForeArm
						{
							OFFSET 2.597580 0.000000 0.000000
							CHANNELS 3 Zrotation Yrotation Xrotation
							JOINT LeftHand
							{
								OFFSET 2.455420 0.000000 0.000000
								CHANNELS 3 Zrotation Yrotation Xrotation
								End Site
								{
									OFFSET 0.000000 0.000000 0.000000
								}
							}
						}
					}
				}
				JOINT RightUpArm_virtual
				{
					OFFSET -0.000000 -0.000000 -0.000000
					CHANNELS 3 Zrotation Yrotation Xrotation
					JOINT RightUpArm
					{
						OFFSET -1.248820 -0.000000 -0.000000
						CHANNELS 3 Zrotation Yrotation Xrotation
						JOINT RightForeArm
						{
							OFFSET -2.597580 -0.000000 -0.000000
							CHANNELS 3 Zrotation Yrotation Xrotation
							JOINT RightHand
							{
								OFFSET -2.455420 -0.000000 -0.000000
								CHANNELS 3 Zrotation Yrotation Xrotation
								End Site
								{
									OFFSET 0.000000 0.000000 0.000000
								}
							}
						}
					}
				}
			}
		}
	}
	JOINT LeftUpLeg
	{
		OFFSET 1.271939 0.000000 0.000000
		CHANNELS 3 Zrotation Yrotation Xrotation
		JOINT LeftLowLeg
		{
			OFFSET 0.000000 -4.342910 0.000000
			CHANNELS 3 Zrotation Yrotation Xrotation
			JOINT LeftFoot
			{
				OFFSET 0.000000 -4.487670 0.000000
				CHANNELS 3 Zrotation Yrotation Xrotation
				JOINT LeftToeBase
				{
					OFFSET 0.000000 0.000000 1.515070
					CHANNELS 3 Zrotation Yrotation Xrotation
					End Site
					{
						OFFSET 0.000000 0.000000 0.000000
					}
				}
			}
		}
	}
	JOINT RightUpLeg
	{
		OFFSET -1.271939 0.000000 0.000000
		CHANNELS 3 Zrotation Yrotation Xrotation
		JOINT RightLowLeg
		{
			OFFSET 0.000000 -4.342910 0.000000
			CHANNELS 3 Zrotation Yrotation Xrotation
			JOINT RightFoot
			{
				OFFSET 0.000000 -4.487670 0.000000
				CHANNELS 3 Zrotation Yrotation Xrotation
				JOINT RightToeBase
				{
					OFFSET 0.000000 0.000000 1.515070
					CHANNELS 3 Zrotation Yrotation Xrotation
					End Site
					{
						OFFSET 0.000000 0.000000 0.000000
					}
				}
			}
		}
	}
}
MOTION
Frames: 13
Frame Time: 0.041667
-14.357654 9.374890 42.949870 -176.460642 -2.907905 175.513348 0.352747 -3.422704 -11.564312 10.939729 -3.776245 23.558129 0.000000 0.000000 0.000000 -23.653531 33.549369 -2.050704 -1.993493 -10.500402 -84.308819 -17.677299 -4.080670 -14.825300 4.246270 -15.931500 -11.274200 0.000000 -39.292500 0.000000 33.125900 -8.981030 14.130800 16.299000 1.541390 -0.101519 9.390340 14.817600 -16.984400 0.000000 16.244900 0.000000 -10.474600 -4.906510 -10.185400 6.757785 11.339715 -10.341536 0.000000 0.000000 25.115101 -8.463723 7.121682 9.338876 0.000000 0.000000 -22.019380 9.747935 13.326179 3.220227 0.000000 0.000000 12.904200 14.004939 -21.911737 6.801721 0.000000 0.000000 -12.096260 
-14.348817 9.378902 42.946673 -176.498605 -2.387527 175.479728 0.968052 -3.392974 -11.228538 10.403340 -3.771843 22.067904 0.000000 0.000000 0.000000 -22.282841 33.549013 -0.053928 -2.716912 -9.530706 -84.887042 -16.809401 -3.927520 -14.495300 5.653820 -15.945500 -12.236400 0.000000 -36.535198 0.000000 32.645401 -8.297900 14.394100 15.877400 1.769380 0.049184 7.822530 15.294200 -19.529600 0.000000 16.318800 0.000000 -11.565300 -5.775390 -8.780760 6.879561 11.218651 -9.640805 0.000000 0.000000 23.776600 -8.225606 7.056733 9.330724 0.000000 0.000000 -22.322070 9.780362 13.605015 3.317333 0.000000 0.000000 12.810800 13.819626 -21.765080 7.039850 0.000000 0.000000 -11.959330 
-14.342167 9.380914 42.938663 -176.460775 -1.865005 175.368799 1.633071 -3.327971 -10.909323 9.891616 -3.777456 20.680479 0.000000 0.000000 0.000000 -20.899775 33.509432 1.972027 -3.353092 -8.570034 -85.443385 -15.974700 -3.850070 -14.325000 6.912440 -16.031900 -12.916800 0.000000 -33.862701 0.000000 32.656200 -7.430270 14.816900 15.428500 1.907540 0.279926 6.259310 15.888600 -21.712601 0.000000 16.526600 0.000000 -12.579500 -6.034840 -9.994830 7.054306 11.215047 -8.705891 0.000000 0.000000 22.161900 -7.693956 7.215291 9.325064 0.000000 0.000000 -22.480410 9.878828 13.764824 3.474112 0.000000 0.000000 12.773100 13.630853 -21.524010 7.306005 0.000000 0.000000 -11.900680 
-14.336962 9.381636 42.927030 -176.371869 -1.376398 175.182504 2.315526 -3.200563 -10.778513 9.262646 -3.849362 19.668094 0.000000 0.000000 0.000000 -19.158972 33.231910 3.867035 -4.299216 -7.459388 -85.752441 -15.226100 -4.048650 -13.753200 8.435780 -15.878900 -14.305700 0.000000 -31.585800 0.000000 32.857498 -6.552540 15.799700 14.988800 2.063620 0.324322 4.793210 16.518600 -23.735201 0.000000 16.626301 0.000000 -13.571000 -5.839100 -9.353550 7.259228 11.336091 -7.606946 0.000000 0.000000 20.401600 -7.006206 7.408406 9.289484 0.000000 0.000000 -22.668710 10.043434 13.889184 3.675568 0.000000 0.000000 12.839500 13.465252 -21.306361 7.541489 0.000000 0.000000 -11.831210 
-14.334055 9.381729 42.912573 -176.269277 -0.904604 174.928079 3.008664 -3.111179 -10.545320 8.649840 -3.966929 18.649723 0.000000 0.000000 0.000000 -17.668018 33.012264 5.713094 -5.183885 -6.459346 -86.147263 -14.725200 -4.015360 -13.368300 9.995190 -15.910600 -15.574100 0.000000 -29.354799 0.000000 33.128502 -6.460080 16.364100 14.621600 2.120070 0.326537 3.189330 17.485001 -25.455200 0.000000 16.895399 0.000000 -14.754500 -6.324420 -9.203000 7.433378 11.792879 -6.304299 0.000000 0.000000 18.381100 -6.178082 7.513768 9.264552 0.000000 0.000000 -22.857350 10.247684 14.081049 3.965949 0.000000 0.000000 12.911000 13.380810 -21.180869 7.708801 0.000000 0.000000 -11.655510 
-14.332384 9.380310 42.896234 -176.164408 -0.492688 174.659784 3.674487 -3.034948 -10.171919 8.015422 -4.042401 17.332681 0.000000 0.000000 0.000000 -15.892113 32.632583 7.826920 -6.204856 -5.316267 -86.551301 -14.340300 -3.971310 -12.799600 11.550900 -16.038200 -16.894501 0.000000 -27.441401 0.000000 33.977200 -6.599500 17.348900 14.349600 2.078040 0.547704 1.517410 18.544701 -27.130899 0.000000 17.040400 0.000000 -16.159201 -6.211650 -8.311430 7.559727 12.646425 -4.964133 0.000000 0.000000 16.325500 -5.489033 7.397289 9.134920 0.000000 0.000000 -22.897760 10.467815 14.293775 4.251878 0.000000 0.000000 13.049400 13.329550 -21.120479 7.791192 0.000000 0.000000 -11.490160 
-14.332747 9.379518 42.880754 -176.084461 -0.130830 174.424861 4.374560 -2.982205 -9.657894 7.238748 -4.131734 15.714392 0.000000 0.000000 0.000000 -14.132195 32.319730 10.178138 -7.180718 -4.109711 -87.165548 -14.100200 -3.915200 -12.070000 13.167500 -16.080400 -18.396700 0.000000 -25.830500 0.000000 35.180901 -7.565000 19.308001 14.289300 2.102530 0.869014 -0.324591 19.590799 -28.537901 0.000000 17.269100 0.000000 -17.845400 -6.056360 -7.253260 7.641089 13.710418 -3.661476 0.000000 0.000000 14.318000 -5.643926 6.886494 9.266071 0.000000 0.000000 -23.401960 10.661476 14.595612 4.457776 0.000000 0.000000 13.278900 13.338289 -21.147932 7.831194 0.000000 0.000000 -11.400370 
-14.334005 9.380115 42.864280 -176.061451 0.213122 174.182124 4.892754 -2.916264 -9.343929 6.650914 -4.187651 14.572763 0.000000 0.000000 0.000000 -12.600053 31.958130 12.034598 -8.017600 -3.043310 -87.500860 -13.933300 -3.926290 -11.510200 14.699700 -16.203600 -20.269699 0.000000 -24.664301 0.000000 36.860401 -8.551660 20.361401 14.044600 2.028020 0.827175 -2.037760 20.735001 -30.438299 0.000000 17.686701 0.000000 -19.273001 -6.051280 -5.921820 7.732012 14.956079 -2.388477 0.000000 0.000000 12.565600 -4.621955 5.843605 10.025683 0.000000 0.000000 -23.873000 10.785916 14.826521 4.649168 0.000000 0.000000 13.555100 13.446638 -21.146679 7.787307 0.000000 0.000000 -11.206120 
-14.335672 9.383112 42.847004 -176.088209 0.410047 173.957178 5.311339 -2.877164 -9.105546 6.037487 -4.258924 13.556345 0.000000 0.000000 0.000000 -11.006943 31.468458 13.779329 -8.896341 -1.949729 -87.794007 -13.788900 -3.877520 -11.041200 16.152500 -16.451200 -22.303900 0.000000 -24.114201 0.000000 38.338200 -8.965240 20.855700 13.839800 1.869240 0.807664 -3.822560 21.955299 -32.506401 0.000000 18.112000 0.000000 -20.507500 -6.196250 -5.026130 7.831207 15.897115 -1.332958 0.000000 0.000000 11.324800 -4.111292 4.624694 10.438174 0.000000 0.000000 -23.482130 10.786362 14.615609 4.817730 0.000000 0.000000 13.815700 13.333700 -20.917634 7.895886 0.000000 0.000000 -11.053210 
-14.337952 9.388771 42.831169 -176.170265 0.540045 173.805590 5.687765 -2.784255 -8.947669 5.280219 -4.300536 12.614600 0.000000 0.000000 0.000000 -9.226769 30.796834 15.501950 -9.742093 -0.748787 -88.042576 -13.531700 -3.852650 -10.604200 17.488800 -16.749500 -24.190599 0.000000 -24.124300 0.000000 39.850800 -8.599860 20.680599 13.797800 1.666700 0.647948 -5.681090 23.074400 -34.110401 0.000000 18.452000 0.000000 -21.437700 -5.831000 -5.283720 7.892766 16.522805 -0.677981 0.000000 0.000000 10.730500 -4.308974 4.329254 10.386232 0.000000 0.000000 -23.209850 10.787962 14.782151 5.035386 0.000000 0.000000 13.867800 13.269292 -21.043416 7.979305 0.000000 0.000000 -11.079880 
-14.342298 9.395334 42.817835 -176.288779 0.588855 173.741447 6.009345 -2.669228 -8.866107 4.591966 -4.306599 11.769104 0.000000 0.000000 0.000000 -7.598068 30.089457 17.150264 -10.343545 0.275635 -88.302021 -13.320100 -3.791510 -10.302900 18.708401 -17.202499 -25.946400 0.000000 -24.535601 0.000000 41.078701 -7.824270 20.180401 13.568100 1.363500 0.451622 -7.428100 24.347700 -35.818100 0.000000 19.154600 0.000000 -23.107599 -7.106340 -4.599210 7.890543 16.855259 -0.472983 0.000000 0.000000 10.758300 -4.901986 4.778379 10.335655 0.000000 0.000000 -23.412930 10.723875 14.988000 5.215933 0.000000 0.000000 13.803300 13.250274 -21.245206 8.045247 0.000000 0.000000 -11.133770 
-14.348146 9.402040 42.805451 -176.391195 0.587363 173.709275 6.384338 -2.531259 -8.733027 3.775775 -4.330164 10.871509 0.000000 0.000000 0.000000 -5.910584 29.285266 18.867018 -10.908271 1.327893 -88.617137 -13.187800 -3.509060 -9.973170 20.109400 -17.905001 -27.510500 0.000000 -25.082399 0.000000 42.215900 -7.436760 20.006201 13.553800 0.976414 0.289464 -9.509840 25.680000 -37.597801 0.000000 19.562201 0.000000 -24.294399 -7.676330 -3.278750 7.944661 17.291085 -0.537148 0.000000 0.000000 11.236600 -5.896758 5.119861 10.261422 0.000000 0.000000 -23.498840 10.628191 15.073764 5.404898 0.000000 0.000000 13.638300 13.286870 -21.335230 8.128124 0.000000 0.000000 -11.204030 
-14.355346 9.408093 42.793836 -176.485398 0.638119 173.642249 6.683990 -2.321907 -8.740752 3.095220 -4.265521 10.295527 0.000000 0.000000 0.000000 -4.098584 28.198176 20.678789 -11.625681 2.414869 -88.794019 -13.177900 -3.496890 -9.751970 21.702900 -18.555401 -28.530199 0.000000 -25.568199 0.000000 43.624699 -7.653790 20.173901 13.442200 0.615927 0.048171 -11.766000 27.072901 -39.606300 0.000000 19.609501 0.000000 -25.404400 -7.530390 -2.450600 8.089436 18.069261 -0.665371 0.000000 0.000000 11.967200 -6.966354 5.080094 10.180494 0.000000 0.000000 -23.443680 10.565439 15.328250 5.656489 0.000000 0.000000 13.428200 13.383608 -21.513678 8.169388 0.000000 0.000000 -11.183470 
